<svg width="22" height="20" viewBox="0 0 22 20" fill="none" xmlns="http://www.w3.org/2000/svg">
<path d="M10.8363 0.162109C5.14197 0.162109 0.506393 4.38584 0.504325 9.57876C0.50329 11.2387 0.980045 12.8592 1.88395 14.2871L0.482105 19.0249L5.89353 17.8589C7.40244 18.6096 9.10107 19.0037 10.8303 19.0046H10.8343C16.5276 19.0046 21.1612 14.78 21.1643 9.58797C21.1664 7.07073 20.093 4.70402 18.1425 2.92337C16.1919 1.14367 13.5997 0.163053 10.8363 0.162109ZM10.8343 2.04839C13.0434 2.04933 15.1194 2.83477 16.68 4.25703C18.2406 5.68117 19.0979 7.57347 19.0959 9.58613C19.0938 13.7397 15.389 17.1183 10.8323 17.1183C9.45369 17.1174 8.08811 16.8017 6.88532 16.2028L6.18844 15.8565L5.41884 16.0223L3.38274 16.4607L3.87965 14.7771L4.10386 14.0218L3.67563 13.3439C2.95376 12.2046 2.57171 10.902 2.57275 9.57876C2.57481 5.42706 6.28068 2.04839 10.8343 2.04839ZM7.18023 5.23148C7.00752 5.23148 6.72827 5.29043 6.49143 5.52621C6.2546 5.76105 5.5865 6.32984 5.5865 7.48801C5.5865 8.64619 6.51163 9.76573 6.64091 9.92323C6.76915 10.0798 8.42665 12.5316 11.0504 13.4747C13.2306 14.2585 13.6733 14.1038 14.147 14.0642C14.6207 14.0255 15.6751 13.4959 15.8902 12.9461C16.1053 12.3962 16.1058 11.9232 16.0417 11.8261C15.9776 11.728 15.8054 11.6695 15.5468 11.5516C15.2893 11.4337 14.0203 10.8654 13.7834 10.7872C13.5466 10.7089 13.3734 10.6693 13.2017 10.9051C13.03 11.1408 12.5366 11.6695 12.3856 11.8261C12.2346 11.9836 12.0847 12.0048 11.8261 11.8869C11.5675 11.768 10.7362 11.5188 9.7496 10.7172C8.98222 10.0937 8.46442 9.32456 8.31342 9.08877C8.16346 8.85393 8.29928 8.72494 8.42856 8.60799C8.54439 8.50236 8.68509 8.33307 8.81437 8.19537C8.94261 8.05767 8.98708 7.95957 9.07292 7.80301C9.15876 7.64645 9.11482 7.50828 9.0507 7.39039C8.98658 7.27249 8.48444 6.11002 8.25484 5.6441C8.06145 5.2527 7.85719 5.24361 7.6731 5.23701C7.52314 5.23135 7.35191 5.23148 7.18023 5.23148Z" fill="white"/>
</svg>
